# xmcd CD database file
#
# Track frame offsets:
#	182
#	18202
#	36430
#	52040
#	64095
#	74347
#	88162
#	103477
#	118655
#	136882
#
# Disc length: 2020 seconds
#
# Revision: 2
# Processed by: cddbd v1.5.1PL2 Copyright (c) Steve Scherf et al.
# Submitted via: CDex 1.51
#
DISCID=9307e20a
DTITLE=Marty Stuart - This One's Gonna Hurt You
DYEAR=1992
DGENRE=Country
TTITLE0=Me and Hank and Jumpin' Jack Flash
TTITLE1=High On A Mountain Top
TTITLE2=This One's Gonna Hurt You (For A Long, Long Time)
TTITLE3=Down Home
TTITLE4=Just Between You And Me
TTITLE5=Hey Baby
TTITLE6=Doin' My Time
TTITLE7=Now That's Country
TTITLE8=The King Of Dixie
TTITLE9=Honky Tonk Crowd
EXTD=YEAR: 1992
EXTT0=
EXTT1=
EXTT2=
EXTT3=
EXTT4=
EXTT5=
EXTT6=
EXTT7=
EXTT8=
EXTT9=
PLAYORDER=
